<?xml version="1.0" encoding="iso-8859-1"?>
<!-- Generator: Adobe Illustrator 16.0.0, SVG Export Plug-In . SVG Version: 6.00 Build 0)  -->
<!DOCTYPE svg PUBLIC "-//W3C//DTD SVG 1.1//EN" "http://www.w3.org/Graphics/SVG/1.1/DTD/svg11.dtd">
<svg xmlns="http://www.w3.org/2000/svg" xmlns:xlink="http://www.w3.org/1999/xlink" version="1.1" id="Capa_1" x="0px" y="0px" width="24px" height="24px" viewBox="0 0 452.799 452.799" style="enable-background:new 0 0 452.799 452.799;" xml:space="preserve">
<g>
	<g id="Layer_2_25_">
		<path d="M451.316,179.205c0.521-3.59-0.943-7.18-3.825-9.383c-2.883-2.203-6.217-2.236-10.058-1.225    c-0.092,0.024-0.904,0.367-3.009,0.367c-15.62,0.002-52.812-16.014-99.487-42.844c-8.375-4.813-17.49-7.254-27.091-7.254    c-12.369,0-24.183,4.117-34.389,9.533c8.852-10.621,14.188-24.271,14.188-39.148c0-4.822-0.568-9.516-1.629-14.02    c-0.031-0.132,3.034-1.764,4.437-2.854c9.895-7.689,15.123-17.084,15.123-27.17c0-13.385-9.155-25.406-25.78-33.846    C265.364,4.035,246.4,0,226.4,0c-20.001,0-38.965,4.035-53.397,11.363c-16.625,8.439-25.78,20.461-25.78,33.846    c0,10.832,6.284,21.15,17.692,29.053c0.597,0.412,1.812,1.254,1.812,1.254c-1.018,4.417-1.573,9.013-1.573,13.736    c0,14.877,5.336,28.527,14.188,39.148c-10.207-5.416-22.021-9.533-34.389-9.533c-9.601,0-18.716,2.441-27.092,7.254    c-46.671,26.826-83.863,42.844-99.488,42.844c-2.103,0-2.916-0.341-3.007-0.367c-3.841-1.105-7.175-0.977-10.058,1.225    c-2.882,2.203-4.346,5.793-3.825,9.383c1.319,9.088,5.622,19.523,16.799,27.74c-1.81,0.184-3.567,0.859-5.064,2.004    c-2.882,2.201-4.346,5.793-3.825,9.383c1.427,9.83,7.023,23.981,26.085,33.119c-1.971,2.887-2.312,6.646-0.79,9.887    c8.189,17.433,26.812,38.213,69.022,38.213c12.925,0,27.458-1.932,43.359-5.752c-0.072,0.412-0.121,0.822-0.142,1.229    l-15.898,67.156c-0.705,2.978-0.009,6.109,1.888,8.508c1.897,2.4,4.786,3.797,7.843,3.797l41.192,0.176l8.164,69.303    c0.593,5.035,4.861,8.83,9.931,8.83h52.702c5.069,0,9.338-3.797,9.931-8.83l8.164-69.303l41.191-0.176    c0.006-0.002,0.014-0.002,0.021,0c5.522,0,10-4.479,10-10c0-1.024-0.154-2.016-0.441-2.944l-15.591-65.862    c0.008-0.611-0.042-1.229-0.148-1.851c15.844,3.797,30.327,5.719,43.21,5.719c42.211,0,60.833-20.78,69.022-38.213    c1.522-3.239,1.181-7-0.79-9.888c19.062-9.137,24.658-23.288,26.085-33.118c0.521-3.59-0.943-7.182-3.825-9.383    c-1.497-1.145-3.254-1.82-5.063-2.004C445.694,198.728,449.997,188.293,451.316,179.205z M174.822,56.289    c-3.251-2.537-7.245-6.566-7.245-11.08c0-10.379,22.378-24.855,58.823-24.855s58.823,14.477,58.823,24.855    c0,4.504-3.935,8.51-7.242,11.086c-10.896-16.995-29.938-28.29-51.581-28.29C204.759,28.005,185.719,39.296,174.822,56.289z     M267.646,89.252c0,22.742-18.502,41.246-41.246,41.246c-22.744,0-41.246-18.504-41.246-41.246    c0-22.744,18.502-41.246,41.246-41.246C249.144,48.006,267.646,66.507,267.646,89.252z M103.712,279.55    c-17.868,0-31.349-4.188-40.756-12.726c6.46-1.366,13.981-3.704,22.692-7.047c4.474-1.717,7.102-6.362,6.265-11.082    c-0.837-4.719-4.902-8.18-9.693-8.254c-14.299-0.219-36.361-2.434-47.048-13.172c7.183-1.207,15.808-3.76,26.09-7.707    c4.285-1.646,6.899-5.996,6.341-10.553c-0.558-4.557-4.147-8.146-8.703-8.707c-15.05-1.855-25.67-5.934-31.761-12.172    c28.161-4.811,74.111-29.395,100.689-44.672c5.379-3.092,10.981-4.594,17.125-4.594c12.472,0,24.937,6.352,34.607,13.041    l-27.48,119.913C133.841,276.945,117.588,279.55,103.712,279.55z M243.859,432.797H208.94l-6.848-58.133h48.615L243.859,432.797z     M153.405,354.49l46.405-199.83c0.355-0.465,11.773-4.162,26.59-4.162s26.353,3.877,26.79,4.414l46.205,199.578H153.405z     M391.538,219.564c10.282,3.947,18.907,6.5,26.09,7.708c-10.687,10.737-32.75,12.953-47.048,13.172    c-4.791,0.074-8.855,3.535-9.692,8.254c-0.836,4.719,1.792,9.365,6.265,11.082c8.711,3.342,16.233,5.68,22.692,7.047    c-9.407,8.537-22.888,12.725-40.756,12.725c-13.839,0-30.039-2.59-48.216-7.688l-27.51-120.043    c9.653-6.656,22.065-12.953,34.484-12.953c6.145,0,11.746,1.502,17.125,4.594c26.581,15.279,72.532,39.863,100.688,44.674    c-6.091,6.238-16.71,10.314-31.76,12.17c-4.555,0.561-8.144,4.15-8.703,8.707C384.64,213.569,387.253,217.918,391.538,219.564z" fill="#FFFFFF"/>
	</g>
</g>
<g>
</g>
<g>
</g>
<g>
</g>
<g>
</g>
<g>
</g>
<g>
</g>
<g>
</g>
<g>
</g>
<g>
</g>
<g>
</g>
<g>
</g>
<g>
</g>
<g>
</g>
<g>
</g>
<g>
</g>
</svg>
