<?xml version="1.0" encoding="iso-8859-1"?>
<!-- Generator: Adobe Illustrator 19.0.0, SVG Export Plug-In . SVG Version: 6.00 Build 0)  -->
<svg xmlns="http://www.w3.org/2000/svg" xmlns:xlink="http://www.w3.org/1999/xlink" version="1.1" id="Layer_1" x="0px" y="0px" viewBox="0 0 512 512" style="enable-background:new 0 0 512 512;" xml:space="preserve" width="24px" height="24px">
<g>
	<g>
		<path d="M313.3,135.576l17.043-51.129h-15.838l13.481-40.425L302.825,0h-93.651l-25.161,44.021l13.481,40.425h-15.839    l17.044,51.129c-80.118,24.914-135.365,99.3-135.365,183.76C63.335,425.57,149.764,512,256,512s192.665-86.429,192.665-192.665    C448.665,234.875,393.418,160.489,313.3,135.576z M218.379,15.862h75.244l12.051,21.085h-99.346L218.379,15.862z M308.336,52.808    l-10.552,31.638h-33.853V52.808H308.336z M248.069,52.808v31.638h-33.854l-10.551-31.638H248.069z M256,496.138    c-97.489,0-176.803-79.313-176.803-176.803c0-80.089,54.143-150.306,131.665-170.754l8.175-2.156l-15.373-46.117h104.674    l-15.373,46.118l8.174,2.156c77.523,20.448,131.665,90.664,131.665,170.754C432.803,416.825,353.489,496.138,256,496.138z" fill="#FFFFFF"/>
	</g>
</g>
<g>
	<g>
		<path d="M256,174.181c-80.044,0-145.165,65.116-145.165,145.154c0,80.044,65.12,145.165,145.165,145.165    s145.165-65.12,145.165-145.165C401.165,239.297,336.044,174.181,256,174.181z M256,448.638    c-71.298,0-129.303-58.005-129.303-129.303c0-71.292,58.005-129.293,129.303-129.293s129.303,58,129.303,129.293    C385.303,390.634,327.299,448.638,256,448.638z" fill="#FFFFFF"/>
	</g>
</g>
<g>
	<g>
		<rect x="240.165" y="121.394" width="31.659" height="15.862" fill="#FFFFFF"/>
	</g>
</g>
<g>
</g>
<g>
</g>
<g>
</g>
<g>
</g>
<g>
</g>
<g>
</g>
<g>
</g>
<g>
</g>
<g>
</g>
<g>
</g>
<g>
</g>
<g>
</g>
<g>
</g>
<g>
</g>
<g>
</g>
</svg>
